<?xml version="1.0" standalone="no"?>
<!DOCTYPE svg PUBLIC "-//W3C//DTD SVG 20010904//EN"
 "http://www.w3.org/TR/2001/REC-SVG-20010904/DTD/svg10.dtd">
<svg version="1.0" xmlns="http://www.w3.org/2000/svg"
 width="260.000000pt" height="260.000000pt" viewBox="0 0 260.000000 260.000000"
 preserveAspectRatio="xMidYMid meet">
<metadata>
Created by potrace 1.11, written by Peter Selinger 2001-2013
</metadata>
<g transform="translate(0.000000,260.000000) scale(0.100000,-0.100000)"
fill="#000000" stroke="none">
<path d="M549 2593 c0 -4 0 -61 1 -125 1 -65 -1 -118 -4 -118 -5 0 -151 76
-298 156 l-98 52 0 -106 c-2 -618 1 -1612 5 -1632 3 -14 8 -41 11 -60 10 -57
62 -205 90 -257 94 -170 228 -303 394 -391 71 -38 172 -78 222 -87 77 -16 124
-20 218 -20 119 0 182 7 255 28 34 10 83 14 151 12 456 -14 849 302 944 759
13 64 17 224 7 304 -10 82 -36 168 -77 258 -96 209 -239 353 -475 479 -38 20
-74 40 -80 45 -5 4 -35 21 -65 37 -105 57 -990 554 -1157 650 -24 13 -43 20
-44 16z m36 -435 l150 -85 1 -589 c1 -402 5 -602 13 -629 30 -107 111 -197
218 -241 79 -32 194 -28 274 9 59 29 119 82 154 137 110 177 40 414 -150 506
l-50 24 -1 225 c0 124 3 225 7 225 66 0 237 -65 329 -126 177 -115 310 -309
346 -504 13 -74 15 -87 15 -161 1 -167 -43 -314 -134 -449 -56 -83 -196 -220
-225 -220 -6 0 -12 -3 -14 -8 -6 -14 -124 -70 -193 -92 -170 -52 -347 -45
-520 22 -239 92 -417 291 -487 544 -21 78 -22 93 -24 827 l-2 747 72 -39 c39
-21 139 -77 221 -123z"/>
</g>
</svg>
